<svg width="45" height="45" viewBox="0 0 45 45" fill="none" xmlns="http://www.w3.org/2000/svg">
<circle cx="22.5" cy="22.5" r="22.5" fill="#FDE4EA"/>
<circle cx="22.5" cy="22.5" r="22" stroke="#472526" stroke-opacity="0.9"/>
<path d="M22.9999 16.7693C22.5346 16.7693 22.1362 16.6035 21.8047 16.272C21.4733 15.9407 21.3077 15.5424 21.3077 15.077C21.3077 14.6115 21.4733 14.2131 21.8047 13.8818C22.1362 13.5503 22.5346 13.3845 22.9999 13.3845C23.4653 13.3845 23.8637 13.5503 24.1952 13.8818C24.5265 14.2131 24.6922 14.6115 24.6922 15.077C24.6922 15.5424 24.5265 15.9407 24.1952 16.272C23.8637 16.6035 23.4653 16.7693 22.9999 16.7693ZM20.8077 32.5V19.423H14.9614V18.423H31.0384V19.423H25.1922V32.5H24.1922V27H21.8077V32.5H20.8077Z" fill="#472526"/>
</svg>
