<svg width="45" height="45" viewBox="0 0 45 45" fill="none" xmlns="http://www.w3.org/2000/svg">
<circle cx="22.5" cy="22.5" r="22.5" fill="#FDE4EA"/>
<circle cx="22.5" cy="22.5" r="22" stroke="#472526" stroke-opacity="0.9"/>
<path d="M21.5501 29.2L26.7251 23H22.7251L23.4501 17.325L18.8251 24H22.3001L21.5501 29.2ZM20.1538 31.8845L21.1538 25H16.9038L24.3846 14.2115H24.8463L23.8656 22H28.8656L20.6156 31.8845H20.1538Z" fill="#472526"/>
<path d="M20.8054 30.8767L20.8062 30.8715L21.9339 29.5204L27.1089 23.3204L27.7937 22.5H27.797L20.8054 30.8767ZM17.8703 24.5H17.859L24.198 15.3581L23.9425 17.3871L23.0391 17.0403L18.4141 23.7153L17.8703 24.5ZM23.293 22.5L23.6873 19.4137L23.3695 21.9376L23.2986 22.5H23.293Z" stroke="#472526" stroke-opacity="0.9"/>
</svg>
