<svg width="45" height="45" viewBox="0 0 45 45" fill="none" xmlns="http://www.w3.org/2000/svg">
<circle cx="22.5" cy="22.5" r="22.5" fill="#FDE4EA"/>
<circle cx="22.5" cy="22.5" r="22" stroke="#472526" stroke-opacity="0.9"/>
<path d="M27 21.7693C27.2063 21.7693 27.3862 21.6927 27.5395 21.5395C27.6927 21.3862 27.7693 21.2063 27.7693 21C27.7693 20.7937 27.6927 20.6138 27.5395 20.4605C27.3862 20.3073 27.2063 20.2307 27 20.2307C26.7937 20.2307 26.6138 20.3073 26.4605 20.4605C26.3073 20.6138 26.2308 20.7937 26.2308 21C26.2308 21.2063 26.3073 21.3862 26.4605 21.5395C26.6138 21.6927 26.7937 21.7693 27 21.7693ZM19 19.5H24V18.5H19V19.5ZM16.25 31C15.7603 29.2538 15.2629 27.5215 14.7577 25.803C14.2526 24.0843 14 22.3167 14 20.5C14 19.2487 14.4372 18.1858 15.3115 17.3115C16.1858 16.4372 17.2487 16 18.5 16H24C24.432 15.4308 24.9426 14.9552 25.5318 14.573C26.1209 14.191 26.777 14 27.5 14C27.6347 14 27.7517 14.0497 27.851 14.149C27.9503 14.2483 28 14.3653 28 14.5C28 14.5358 27.9939 14.5717 27.9818 14.6077C27.9696 14.6436 27.9597 14.6775 27.952 14.7095C27.834 15.0083 27.7394 15.3145 27.6683 15.628C27.5971 15.9413 27.532 16.2557 27.473 16.5712L30.402 19.5H32V24.7443L29.3673 25.6115L27.75 31H24V29H20V31H16.25ZM17 30H19V28H25V30H27L28.55 24.85L31 24.025V20.5H30L26.5 17C26.5 16.6667 26.5208 16.3458 26.5625 16.0375C26.6042 15.7292 26.6795 15.4231 26.7885 15.1193C26.3052 15.2526 25.8866 15.4882 25.5328 15.826C25.1789 16.1638 24.893 16.5552 24.675 17H18.5C17.5333 17 16.7083 17.3417 16.025 18.025C15.3417 18.7083 15 19.5333 15 20.5C15 22.1333 15.225 23.7292 15.675 25.2875C16.125 26.8458 16.5667 28.4167 17 30Z" fill="#472526"/>
<path d="M27.1807 15.5173C27.1807 15.5173 27.1807 15.5173 27.1807 15.5173L27.184 15.518M27.1807 15.5173L27.184 15.5181M27.1807 15.5173C27.1763 15.5364 27.172 15.5555 27.1677 15.5746C27.173 15.5558 27.1784 15.5369 27.184 15.5181M27.184 15.518C27.184 15.518 27.184 15.518 27.184 15.5181M27.184 15.518L27.6683 15.628M27.184 15.518C27.2066 15.4414 27.2316 15.3647 27.2591 15.2881L27.5051 14.6024L27.952 14.7095L27.6683 15.628M27.184 15.5181L27.6683 15.628M24.2482 16.5L24.3983 16.3023C24.668 15.947 24.97 15.6322 25.3049 15.3572C25.2651 15.3919 25.226 15.4276 25.1875 15.4644C24.8667 15.7706 24.5956 16.1163 24.3749 16.5H24.2482ZM26.6555 14.6373C26.3192 14.73 26.0076 14.8665 25.7225 15.0463C25.7494 15.0281 25.7765 15.0102 25.8038 14.9925C26.1834 14.7464 26.5943 14.5922 27.042 14.5307L26.6555 14.6373Z" stroke="#472526" stroke-opacity="0.9"/>
</svg>
