<svg width="32" height="32" viewBox="0 0 32 32" fill="none" xmlns="http://www.w3.org/2000/svg">
<path d="M16 30.5C8.005 30.5 1.5 23.995 1.5 16C1.5 8.005 8.005 1.5 16 1.5C23.995 1.5 30.5 8.005 30.5 16C30.5 23.995 23.995 30.5 16 30.5ZM16 3.5C9.107 3.5 3.5 9.107 3.5 16C3.5 22.893 9.107 28.5 16 28.5C22.893 28.5 28.5 22.893 28.5 16C28.5 9.107 22.893 3.5 16 3.5ZM14.089 20.821C13.824 20.821 13.569 20.716 13.382 20.528L9.562 16.707C9.171 16.316 9.171 15.683 9.562 15.293C9.953 14.902 10.585 14.902 10.976 15.293L14.089 18.407L21.023 11.473C21.414 11.082 22.046 11.082 22.437 11.473C22.828 11.864 22.828 12.496 22.437 12.887L14.796 20.528C14.609 20.715 14.354 20.821 14.089 20.821Z" fill="#FFA039"/>
</svg>
