<svg width="45" height="45" viewBox="0 0 45 45" fill="none" xmlns="http://www.w3.org/2000/svg">
<circle cx="22.5" cy="22.5" r="22.5" fill="#FDE4EA"/>
<circle cx="22.5" cy="22.5" r="22" stroke="#472526" stroke-opacity="0.9"/>
<path d="M28.4615 31.0001H18.423V20.0001L24.6923 13.8079L25.1345 14.2501C25.2257 14.3411 25.3023 14.4578 25.3645 14.6001C25.4267 14.7424 25.4578 14.8732 25.4578 14.9924V15.1501L24.4345 20.0001H31.3845C31.8025 20.0001 32.1763 20.1649 32.5058 20.4944C32.8352 20.8239 33 21.1976 33 21.6156V22.8464C33 22.9374 32.9897 23.0367 32.9693 23.1444C32.9488 23.252 32.9218 23.3514 32.8885 23.4424L30.1578 29.9156C30.0206 30.2233 29.7898 30.4809 29.4655 30.6886C29.141 30.8963 28.8063 31.0001 28.4615 31.0001ZM19.423 30.0001H28.4615C28.6025 30.0001 28.7468 29.9616 28.8943 29.8846C29.0418 29.8078 29.1539 29.6796 29.2308 29.5001L32 23.0001V21.6156C32 21.4361 31.9423 21.2886 31.827 21.1731C31.7115 21.0578 31.564 21.0001 31.3845 21.0001H23.1923L24.35 15.5386L19.423 20.4271V30.0001ZM18.423 20.0001V21.0001H15V30.0001H18.423V31.0001H14V20.0001H18.423Z" fill="#472526"/>
<path d="M18.923 20.209L21.1218 18.0372L19.0708 20.0722L18.923 20.2189V20.209ZM24.8391 15.6423L24.9578 15.0827V15.0979L23.9453 19.8969L23.818 20.5001H23.8094L24.8391 15.6423ZM29.1256 30.3279C29.1531 30.3135 29.1796 30.2983 29.2053 30.2823L29.4655 30.6886L29.1256 30.3279ZM29.6992 29.7162C29.6543 29.8159 29.5935 29.9111 29.5137 30.0011C29.585 29.9087 29.6436 29.8062 29.6904 29.6969L29.6907 29.6961L31.415 25.6489L29.6992 29.7162ZM29.1959 30.2675C29.17 30.2841 29.1442 30.2997 29.1186 30.3144L29.1959 30.2675Z" stroke="#472526" stroke-opacity="0.9"/>
</svg>
