<svg width="45" height="45" viewBox="0 0 45 45" fill="none" xmlns="http://www.w3.org/2000/svg">
<circle cx="22.5" cy="22.5" r="22.5" fill="#FDE4EA"/>
<circle cx="22.5" cy="22.5" r="22" stroke="#472526" stroke-opacity="0.9"/>
<path d="M17.5 24.5H24.5V23.5H17.5V24.5ZM17.5 21.5H28.5V20.5H17.5V21.5ZM17.5 18.5H28.5V17.5H17.5V18.5ZM14 31.077V15.6155C14 15.1552 14.1542 14.7708 14.4625 14.4625C14.7708 14.1542 15.1552 14 15.6155 14H30.3845C30.8448 14 31.2292 14.1542 31.5375 14.4625C31.8458 14.7708 32 15.1552 32 15.6155V26.3845C32 26.8448 31.8458 27.2292 31.5375 27.5375C31.2292 27.8458 30.8448 28 30.3845 28H17.077L14 31.077ZM16.65 27H30.3845C30.5385 27 30.6796 26.9359 30.8078 26.8078C30.9359 26.6796 31 26.5385 31 26.3845V15.6155C31 15.4615 30.9359 15.3204 30.8078 15.1923C30.6796 15.0641 30.5385 15 30.3845 15H15.6155C15.4615 15 15.3204 15.0641 15.1923 15.1923C15.0641 15.3204 15 15.4615 15 15.6155V28.6443L16.65 27Z" fill="#472526"/>
<path d="M16.8699 27.5L16.7234 27.6464L14.5 29.8699V29.8484L15.3529 28.9984L16.8566 27.5H16.8699ZM14.5 15.6155C14.5 15.2796 14.6071 15.025 14.8161 14.8161C15.025 14.6071 15.2796 14.5 15.6155 14.5C15.3056 14.5 15.0428 14.6346 14.8387 14.8387C14.6346 15.0428 14.5 15.3056 14.5 15.6155ZM30.3845 14.5C30.7204 14.5 30.975 14.6071 31.1839 14.8161C31.3929 15.025 31.5 15.2796 31.5 15.6155C31.5 15.3056 31.3654 15.0428 31.1613 14.8387C30.9572 14.6346 30.6944 14.5 30.3845 14.5ZM31.5 26.3845C31.5 26.7204 31.3929 26.975 31.1839 27.1839C30.975 27.3929 30.7204 27.5 30.3845 27.5C30.6944 27.5 30.9572 27.3654 31.1613 27.1613C31.3654 26.9572 31.5 26.6944 31.5 26.3845Z" stroke="#472526" stroke-opacity="0.9"/>
</svg>
