<svg width="45" height="45" viewBox="0 0 45 45" fill="none" xmlns="http://www.w3.org/2000/svg">
<circle cx="22.5" cy="22.5" r="22.5" fill="#FDE4EA"/>
<circle cx="22.5" cy="22.5" r="22" stroke="#472526" stroke-opacity="0.9"/>
<path d="M28.8038 31.5077L22.2538 24.9462C21.8821 25.1179 21.5029 25.2532 21.116 25.352C20.7292 25.4507 20.3187 25.5 19.8845 25.5C18.3569 25.5 17.0583 24.9653 15.9888 23.8958C14.9193 22.8264 14.3845 21.5278 14.3845 20C14.3845 19.5667 14.4326 19.1497 14.5288 18.749C14.6249 18.3483 14.7654 17.9641 14.95 17.5962L18.4845 21.0923L20.977 18.6L17.5193 15.1038C17.8873 14.9193 18.2658 14.7725 18.6548 14.6635C19.0438 14.5545 19.4537 14.5 19.8845 14.5C21.4124 14.5 22.711 15.0347 23.7805 16.1042C24.8499 17.1736 25.3845 18.4722 25.3845 20C25.3845 20.4603 25.3384 20.8837 25.2463 21.2702C25.1539 21.6568 25.0154 22.0231 24.8308 22.3692L31.3923 28.9193C31.5411 29.0724 31.6155 29.2575 31.6155 29.4745C31.6155 29.6915 31.5425 29.8729 31.3965 30.0188L29.865 31.5505C29.7192 31.6963 29.543 31.7628 29.3365 31.75C29.1302 31.7372 28.9526 31.6564 28.8038 31.5077ZM29.3558 30.6327L30.5115 29.477L23.5923 22.5577C23.8538 22.1988 24.0512 21.7984 24.1845 21.3568C24.3179 20.9151 24.3845 20.4628 24.3845 20C24.3845 18.782 23.9131 17.69 22.9703 16.724C22.0273 15.758 20.8179 15.3667 19.3423 15.55L21.827 18.0345C21.9885 18.1962 22.0693 18.3847 22.0693 18.6C22.0693 18.8153 21.9885 19.0038 21.827 19.1655L19.05 21.9423C18.8885 22.1038 18.7 22.1845 18.4845 22.1845C18.2692 22.1845 18.0808 22.1038 17.9193 21.9423L15.4345 19.4577C15.2897 21.0744 15.7067 22.3189 16.6855 23.1912C17.6644 24.0638 18.7307 24.5 19.8845 24.5C20.3265 24.5 20.7684 24.4365 21.2103 24.3095C21.6521 24.1827 22.0609 23.984 22.4365 23.7135L29.3558 30.6327Z" fill="#472526"/>
<path d="M18.6741 21.6098C18.6814 21.6033 18.6889 21.5963 18.6965 21.5887L18.6965 21.5887L21.4733 18.8121L18.6741 21.6098ZM18.6741 21.6098L18.8381 21.4458L21.3306 18.9536L21.494 18.7901C21.4877 18.7973 21.4808 18.8046 21.4735 18.8119L18.6741 21.6098ZM21.505 18.4228C21.4957 18.4114 21.4853 18.3999 21.4735 18.3881L21.505 18.4228ZM21.505 18.4228L21.3325 18.2484L21.2184 18.133L21.4733 18.3879L21.505 18.4228ZM24.685 21.427C24.7129 21.3375 24.7379 21.2466 24.7599 21.1543L24.685 21.427ZM24.685 21.427C24.818 20.9619 24.8845 20.4858 24.8845 20M24.685 21.427L24.76 21.1541C24.8417 20.811 24.8845 20.4272 24.8845 20M24.8845 20C24.8845 18.6368 24.3513 17.4231 23.3281 16.3748L23.3281 16.3747C23.2546 16.2995 23.1797 16.2274 23.1034 16.1585C23.2136 16.2525 23.3214 16.3523 23.427 16.4578C24.4015 17.4323 24.8845 18.6032 24.8845 20ZM14.8845 20C14.8845 19.6912 14.9112 19.3936 14.964 19.1065L14.9365 19.4131C14.8803 20.0405 14.903 20.6263 15.0082 21.1661C14.9257 20.7962 14.8845 20.4077 14.8845 20ZM16.4777 23.6732C16.4376 23.6357 16.3979 23.5974 16.3584 23.5583L16.3528 23.5645C16.3942 23.6014 16.4359 23.6377 16.4777 23.6732ZM18.2728 21.5887L18.0345 21.3504L18.1329 21.4477L18.3063 21.6193C18.2954 21.6102 18.2842 21.6001 18.2728 21.5887L18.2728 21.5887ZM19.8845 25C19.9594 25 20.0342 24.9984 20.109 24.9951C20.0352 24.9984 19.9603 25 19.8845 25ZM22.0441 24.4923C21.8126 24.5992 21.5785 24.6907 21.3417 24.7668L22.0568 24.5199C22.1628 24.4687 22.2667 24.4133 22.3687 24.3536L22.361 24.346L22.0441 24.4923ZM29.5114 31.197C29.4934 31.215 29.4766 31.2281 29.4588 31.2368L29.7093 30.9863L30.8651 29.8306L31.0859 29.6097C31.0747 29.63 31.0604 29.6478 31.0432 29.665L31.0429 29.6652L29.5115 31.1969C29.5115 31.197 29.5114 31.197 29.5114 31.197ZM31.0919 29.3502L30.8651 29.1234L24.2329 22.4913C24.2345 22.4887 24.236 22.4861 24.2375 22.4835L24.4775 22.7231L31.0358 29.2699C31.0604 29.2955 31.0789 29.3215 31.0919 29.3502ZM19.2806 15.0538L19.0437 15.0832C19.3109 15.0281 19.5908 15 19.8845 15C19.9993 15 20.1125 15.0033 20.2243 15.0098C19.9199 14.9987 19.6052 15.0135 19.2806 15.0538Z" stroke="#472526" stroke-opacity="0.9"/>
</svg>
