<svg width="174" height="12" viewBox="0 0 174 12" fill="none" xmlns="http://www.w3.org/2000/svg">
<path fill-rule="evenodd" clip-rule="evenodd" d="M3.04754 0L0 2.96952L12.2715 12L18.8961 5.54965L27.6625 12L34.2802 5.55162L43.0442 12L50.663 4.57817L47.1556 1.99803L42.5843 6.45034L33.8179 0L30.7704 2.96952H30.775L27.2026 6.45034L18.4362 0L11.8139 6.45034L3.04754 0Z" fill="#222222"/>
<path fill-rule="evenodd" clip-rule="evenodd" d="M33.8818 0L30.8342 2.96952L43.1057 12L49.7304 5.54965L58.4967 12L65.1144 5.55162L73.8784 12L81.4973 4.57817L77.9898 1.99803L73.4185 6.45034L64.6522 0L61.6046 2.96952H61.6093L58.0368 6.45034L49.2705 0L42.6481 6.45034L33.8818 0Z" fill="#222222"/>
<path fill-rule="evenodd" clip-rule="evenodd" d="M64.716 0L61.6685 2.96952L73.9399 12L80.5646 5.54965L89.3309 12L95.9487 5.55162L104.713 12L112.332 4.57817L108.824 1.99803L104.253 6.45034L95.4864 0L92.4389 2.96952H92.4435L88.871 6.45034L80.1047 0L73.4823 6.45034L64.716 0Z" fill="#222222"/>
<path fill-rule="evenodd" clip-rule="evenodd" d="M95.5503 0L92.5027 2.96952L104.774 12L111.399 5.54965L120.165 12L126.783 5.55162L135.547 12L143.166 4.57817L139.658 1.99803L135.087 6.45034L126.321 0L123.273 2.96952H123.278L119.705 6.45034L110.939 0L104.317 6.45034L95.5503 0Z" fill="#222222"/>
<path fill-rule="evenodd" clip-rule="evenodd" d="M126.384 0L123.337 2.96952L135.608 12L142.233 5.54965L150.999 12L157.617 5.55162L166.381 12L174 4.57817L170.493 1.99803L165.921 6.45034L157.155 0L154.107 2.96952H154.112L150.54 6.45034L141.773 0L135.151 6.45034L126.384 0Z" fill="#222222"/>
</svg>
