<svg width="45" height="45" viewBox="0 0 45 45" fill="none" xmlns="http://www.w3.org/2000/svg">
<circle cx="22.5" cy="22.5" r="22.5" fill="#FDE4EA"/>
<circle cx="22.5" cy="22.5" r="22" stroke="#472526" stroke-opacity="0.9"/>
<path d="M20.0229 32.2308L18.3537 29.4155L15.1769 28.7308L15.4884 25.4538L13.3462 23L15.4884 20.5463L15.1769 17.2693L18.3537 16.5845L20.0229 13.7693L22.9999 15.027L25.9769 13.7693L27.6462 16.5845L30.8229 17.2693L30.5114 20.5463L32.6537 23L30.5114 25.4538L30.8229 28.7308L27.6462 29.4155L25.9769 32.2308L22.9999 30.973L20.0229 32.2308ZM20.4499 30.95L22.9999 29.8885L25.5614 30.95L26.9999 28.55L29.7499 27.9385L29.4999 25.1L31.3499 23L29.4999 20.8885L29.7499 18.05L26.9999 17.45L25.5499 15.05L22.9999 16.1115L20.4384 15.05L18.9999 17.45L16.2499 18.05L16.4999 20.8885L14.6499 23L16.4999 25.1L16.2499 27.95L18.9999 28.55L20.4499 30.95ZM21.9499 25.8578L26.9077 20.9L26.1999 20.1808L21.9499 24.4308L19.7999 22.2923L19.0922 23L21.9499 25.8578Z" fill="#472526"/>
<path d="M18.7838 29.1605L18.7396 29.0861L20.022 31.2086L20.2446 31.5771L20.6421 31.4116L23.0004 30.43L25.37 31.4119L25.7685 31.5771L25.9903 31.2071L27.1375 29.2931L25.7695 31.6003L23.1945 30.5125L22.9999 30.4302L22.8054 30.5125L20.2304 31.6003L18.7838 29.1605ZM20.0096 14.793L18.8623 16.7072L20.2304 14.3997L22.8054 15.4876L22.9999 15.5698L23.1945 15.4876L25.7695 14.3997L27.2161 16.8395L27.2602 16.914L25.9779 14.7915L25.7553 14.423L25.3578 14.5884L22.9995 15.5701L20.6299 14.5881L20.2313 14.423L20.0096 14.793ZM29.8585 28.4266L30.2828 28.3323L30.2831 28.3357L29.7737 28.4455L29.8585 28.4266ZM21.5973 24.7853L21.9509 25.1369L22.3035 24.7843L26.1971 20.8908L26.2034 20.8972L21.9499 25.1507L19.7993 23L19.8009 22.9984L21.5973 24.7853Z" stroke="#472526" stroke-opacity="0.9"/>
</svg>
